<?xml version="1.0" encoding="utf-8"?>
<!-- Generator: Adobe Illustrator 22.0.1, SVG Export Plug-In . SVG Version: 6.00 Build 0)  -->
<svg version="1.1" id="Слой_1" xmlns="http://www.w3.org/2000/svg" xmlns:xlink="http://www.w3.org/1999/xlink" x="0px" y="0px"
	 viewBox="0 0 595.3 595.3" style="enable-background:new 0 0 595.3 595.3;" xml:space="preserve">
<style type="text/css">
	.st0{fill:#F29506;stroke:#020203;stroke-width:0.25;stroke-miterlimit:10;}
	.st1{fill:#E5E4E4;stroke:#020203;stroke-width:0.25;stroke-miterlimit:10;}
	.st2{fill:#E52421;stroke:#020203;stroke-width:0.5;stroke-miterlimit:10;}
	.st3{fill:#E52520;stroke:#020203;stroke-width:0.5;stroke-miterlimit:10;}
	.st4{fill:#E0E0E0;}
	.st5{fill:none;stroke:#020203;stroke-width:0.25;stroke-miterlimit:10;}
	.st6{font-family:'MyriadPro-Regular';}
	.st7{font-size:36px;}
</style>
<g>
	<ellipse class="st0" cx="297.6" cy="297.7" rx="159.6" ry="155.5"/>
	<path class="st1" d="M446.3,294.9c0.7,61.4-38,114.3-93.2,135.9c-3.3-26.3-26.6-46.7-54.5-46.4c-27.9,0.3-50.8,21.1-53.5,47.5
		c-55.6-20.5-95.5-72.6-96.1-134c-0.9-80,65-145.5,147.1-146.4C378.2,150.8,445.4,214.9,446.3,294.9z"/>
	<ellipse class="st2" cx="586.5" cy="300.3" rx="8.7" ry="8.5"/>
	<ellipse class="st3" cx="8.7" cy="297.7" rx="8.7" ry="8.5"/>
	<g>
		<g>
			<g>
				<path class="st4" d="M297.6,414.1c-14.3,0-25.9,11.3-25.9,25.2v11.5c8.9,1.6,18.1,2.4,27.4,2.3c8.3-0.1,16.5-0.9,24.4-2.3v-11.5
					C323.5,425.4,311.9,414.1,297.6,414.1z"/>
			</g>
		</g>
		<g>
			<g>
				<path class="st5" d="M297.6,414.1c-14.3,0-25.9,11.3-25.9,25.2v11.5c8.9,1.6,18.1,2.4,27.4,2.3c8.3-0.1,16.5-0.9,24.4-2.3v-11.5
					C323.5,425.4,311.9,414.1,297.6,414.1z"/>
			</g>
		</g>
	</g>
	<ellipse class="st3" cx="297.6" cy="564" rx="8.7" ry="8.5"/>
	<ellipse class="st3" cx="297.6" cy="31.4" rx="8.7" ry="8.5"/>
	<text transform="matrix(1 0 0 1 555.5488 290.843)" class="st6 st7">A</text>
	<text transform="matrix(1 0 0 1 301.2742 67.9737)" class="st6 st7">B</text>
	<text transform="matrix(1 0 0 1 20.2285 288.2352)" class="st6 st7">C</text>
	<text transform="matrix(1 0 0 1 310.4246 550.9802)" class="st6 st7">D</text>
</g>
</svg>
