<?xml version="1.0" encoding="utf-8"?>
<!-- Generator: Adobe Illustrator 22.0.1, SVG Export Plug-In . SVG Version: 6.00 Build 0)  -->
<svg version="1.1" id="Слой_1" xmlns="http://www.w3.org/2000/svg" xmlns:xlink="http://www.w3.org/1999/xlink" x="0px" y="0px"
	 viewBox="0 0 425.2 311.8" style="enable-background:new 0 0 425.2 311.8;" xml:space="preserve">
<style type="text/css">
	.st0{clip-path:url(#SVGID_2_);fill:#FFFFFF;}
	.st1{clip-path:url(#SVGID_2_);fill:none;stroke:#FBFBFB;stroke-width:1.067;stroke-linejoin:round;stroke-miterlimit:10;}
	.st2{clip-path:url(#SVGID_2_);fill:none;stroke:#E5E4E4;stroke-width:0.4268;stroke-linejoin:round;stroke-miterlimit:10;}
	
		.st3{clip-path:url(#SVGID_2_);fill:none;stroke:#EE756E;stroke-width:1.5;stroke-linejoin:round;stroke-miterlimit:1;stroke-dasharray:12.8037,12.8037;}
	
		.st4{clip-path:url(#SVGID_2_);fill:none;stroke:#3BAA3C;stroke-width:1.5;stroke-linejoin:round;stroke-miterlimit:1;stroke-dasharray:12.8037,12.8037;}
	.st5{clip-path:url(#SVGID_2_);fill:none;stroke:#6D94CD;stroke-width:1.5;stroke-linejoin:round;stroke-miterlimit:1;}
	
		.st6{clip-path:url(#SVGID_2_);fill:none;stroke:#7F7F80;stroke-width:1.067;stroke-linecap:round;stroke-linejoin:round;stroke-miterlimit:10;}
	.st7{fill:#010202;}
	.st8{font-family:'TimesNewRomanPSMT';}
	.st9{font-size:12px;}
	.st10{fill:none;stroke:#010202;stroke-width:1.067;stroke-linejoin:round;stroke-miterlimit:10;}
	.st11{fill:none;}
	.st12{font-family:'MyriadPro-Regular';}
	.st13{font-family:'TimesNewRomanPS-ItalicMT';}
	.st14{font-size:14px;}
	.st15{clip-path:url(#SVGID_5_);fill:#FFFFFF;}
	.st16{clip-path:url(#SVGID_5_);fill:none;stroke:#FBFBFB;stroke-width:1.067;stroke-linejoin:round;stroke-miterlimit:10;}
	.st17{clip-path:url(#SVGID_5_);fill:none;stroke:#E5E4E4;stroke-width:0.4268;stroke-linejoin:round;stroke-miterlimit:10;}
	
		.st18{clip-path:url(#SVGID_5_);fill:none;stroke:#EE756E;stroke-width:1.5;stroke-linejoin:round;stroke-miterlimit:1;stroke-dasharray:12.8037,12.8037;}
	
		.st19{clip-path:url(#SVGID_5_);fill:none;stroke:#3BAA3C;stroke-width:1.5;stroke-linejoin:round;stroke-miterlimit:1;stroke-dasharray:12.8037,12.8037;}
	.st20{clip-path:url(#SVGID_5_);fill:none;stroke:#6D94CD;stroke-width:1.5;stroke-linejoin:round;stroke-miterlimit:1;}
	
		.st21{clip-path:url(#SVGID_5_);fill:none;stroke:#7F7F80;stroke-width:1.067;stroke-linecap:round;stroke-linejoin:round;stroke-miterlimit:10;}
	.st22{clip-path:url(#SVGID_7_);fill:#FFFFFF;}
	.st23{clip-path:url(#SVGID_7_);fill:none;stroke:#FBFBFB;stroke-width:1.067;stroke-linejoin:round;stroke-miterlimit:10;}
	.st24{clip-path:url(#SVGID_7_);fill:none;stroke:#E5E4E4;stroke-width:0.4268;stroke-linejoin:round;stroke-miterlimit:10;}
	
		.st25{clip-path:url(#SVGID_7_);fill:none;stroke:#EE756E;stroke-width:1.5;stroke-linejoin:round;stroke-miterlimit:1;stroke-dasharray:12.8037,12.8037;}
	
		.st26{clip-path:url(#SVGID_7_);fill:none;stroke:#3BAA3C;stroke-width:1.5;stroke-linejoin:round;stroke-miterlimit:1;stroke-dasharray:12.8037,12.8037;}
	.st27{clip-path:url(#SVGID_7_);fill:none;stroke:#6D94CD;stroke-width:1.5;stroke-linejoin:round;stroke-miterlimit:1;}
	
		.st28{clip-path:url(#SVGID_7_);fill:none;stroke:#7F7F80;stroke-width:1.067;stroke-linecap:round;stroke-linejoin:round;stroke-miterlimit:10;}
	.st29{clip-path:url(#SVGID_9_);fill:#FFFFFF;}
	.st30{clip-path:url(#SVGID_9_);fill:none;stroke:#FBFBFB;stroke-width:1.067;stroke-linejoin:round;stroke-miterlimit:10;}
	.st31{clip-path:url(#SVGID_9_);fill:none;stroke:#E5E4E4;stroke-width:0.4268;stroke-linejoin:round;stroke-miterlimit:10;}
	
		.st32{clip-path:url(#SVGID_9_);fill:none;stroke:#EE756E;stroke-width:1.5;stroke-linejoin:round;stroke-miterlimit:1;stroke-dasharray:12.8037,12.8037;}
	
		.st33{clip-path:url(#SVGID_9_);fill:none;stroke:#3BAA3C;stroke-width:1.5;stroke-linejoin:round;stroke-miterlimit:1;stroke-dasharray:12.8037,12.8037;}
	.st34{clip-path:url(#SVGID_9_);fill:none;stroke:#6D94CD;stroke-width:1.5;stroke-miterlimit:10;}
	
		.st35{clip-path:url(#SVGID_9_);fill:none;stroke:#7F7F80;stroke-width:1.067;stroke-linecap:round;stroke-linejoin:round;stroke-miterlimit:10;}
	.st36{fill:none;stroke:#EE756E;stroke-width:3.2009;stroke-linejoin:round;stroke-miterlimit:10;}
	.st37{fill:none;stroke:#3BAA3C;stroke-width:3.2009;stroke-linejoin:round;stroke-miterlimit:10;}
	.st38{fill:none;stroke:#6D94CD;stroke-width:3.2009;stroke-linejoin:round;stroke-miterlimit:10;}
	.st39{fill:none;stroke:#000000;stroke-width:0.5;stroke-linejoin:round;stroke-miterlimit:10;}
	.st40{font-family:'TimesNewRomanPS-BoldMT';}
	.st41{font-size:18px;}
</style>
<g>
	<defs>
		<rect id="SVGID_1_" x="24.6" y="15.6" width="184.4" height="107.8"/>
	</defs>
	<clipPath id="SVGID_2_">
		<use xlink:href="#SVGID_1_"  style="overflow:visible;"/>
	</clipPath>
	<rect x="24.6" y="15.6" class="st0" width="183.8" height="107.2"/>
	<line class="st1" x1="24.6" y1="106" x2="208.4" y2="106"/>
	<line class="st1" x1="24.6" y1="81.6" x2="208.4" y2="81.6"/>
	<line class="st1" x1="24.6" y1="57.2" x2="208.4" y2="57.2"/>
	<line class="st1" x1="24.6" y1="32.7" x2="208.4" y2="32.7"/>
	<line class="st1" x1="49.1" y1="122.8" x2="49.1" y2="15.6"/>
	<line class="st1" x1="82.6" y1="122.8" x2="82.6" y2="15.6"/>
	<line class="st1" x1="116.2" y1="122.8" x2="116.2" y2="15.6"/>
	<line class="st1" x1="149.7" y1="122.8" x2="149.7" y2="15.6"/>
	<line class="st1" x1="183.3" y1="122.8" x2="183.3" y2="15.6"/>
	<line class="st2" x1="24.6" y1="118.3" x2="208.4" y2="118.3"/>
	<line class="st2" x1="24.6" y1="93.8" x2="208.4" y2="93.8"/>
	<line class="st2" x1="24.6" y1="69.4" x2="208.4" y2="69.4"/>
	<line class="st2" x1="24.6" y1="44.9" x2="208.4" y2="44.9"/>
	<line class="st2" x1="24.6" y1="20.5" x2="208.4" y2="20.5"/>
	<line class="st2" x1="32.3" y1="122.8" x2="32.3" y2="15.6"/>
	<line class="st2" x1="65.9" y1="122.8" x2="65.9" y2="15.6"/>
	<line class="st2" x1="99.4" y1="122.8" x2="99.4" y2="15.6"/>
	<line class="st2" x1="133" y1="122.8" x2="133" y2="15.6"/>
	<line class="st2" x1="166.5" y1="122.8" x2="166.5" y2="15.6"/>
	<line class="st2" x1="200.1" y1="122.8" x2="200.1" y2="15.6"/>
	<polyline class="st3" points="35.6,58.7 36.6,50.8 37.6,45.6 38.6,42.9 39.5,36.8 40.5,33.4 41.5,31.6 42.5,28.5 43.4,26.5 
		44.4,26.6 45.4,27.2 46.4,28 47.3,29.8 48.3,32.3 49.3,35.2 50.2,38.6 51.2,42.6 52.2,46.6 53.2,50.5 54.1,54.8 55.1,60 56.1,65.4 
		57.1,70.6 58,75.4 59,80.6 60,86.5 60.9,92.8 61.9,98.6 62.9,103.8 63.9,108.6 64.8,44.7 65.8,114.3 66.8,110 67.8,105.5 
		68.7,101.2 69.7,93.5 70.7,92.7 71.6,88.6 72.6,84.4 73.6,80.2 74.6,75.9 75.5,71.5 76.5,67.1 77.5,62.6 78.5,58.1 79.4,53.6 
		80.4,49.1 81.4,44.8 82.3,40.7 83.3,36.8 84.3,33.2 85.3,30 86.2,27.1 87.2,24.8 88.2,22.9 89.2,21.6 90.1,20.8 91.1,20.5 
		92.1,20.8 93.1,21.7 94,23 95,24.9 96,27.3 96.9,30.1 97.9,33.2 98.9,36.7 99.9,40.4 100.8,44.3 101.8,48.4 102.8,52.4 103.8,56.4 
		104.7,60.2 105.7,63.9 106.7,67.3 107.6,70.3 108.6,73 109.6,75.4 110.6,77.4 111.5,79.1 112.5,80.7 113.5,82 114.5,83.3 
		115.4,84.7 116.4,86.2 117.4,87.9 118.3,89.9 119.3,92.2 120.3,94.9 121.3,97.9 122.2,101.3 123.2,105.1 124.2,109.2 125.2,113.7 
		126.1,118 127.1,113 128.1,107.7 129.1,102.2 130,96.6 131,90.9 132,85.1 132.9,79.4 133.9,73.7 134.9,68.1 135.9,62.7 136.8,57.4 
		137.8,52.4 138.8,47.7 139.8,43.4 140.7,39.3 141.7,35.7 142.7,32.4 143.6,29.6 144.6,27.1 145.6,25.1 146.6,23.6 147.5,22.4 
		148.5,21.7 149.5,21.3 150.5,21.3 151.4,21.6 152.4,22.3 153.4,23.2 154.3,24.3 155.3,25.7 156.3,27.2 157.3,28.8 158.2,30.5 
		159.2,32.3 160.2,34.1 161.2,35.9 162.1,37.8 163.1,39.6 164.1,41.3 165,43.1 166,44.9 167,46.8 168,48.6 168.9,50.6 169.9,52.7 
		170.9,54.9 171.9,57.3 172.8,59.9 173.8,62.7 174.8,65.8 175.8,69.1 176.7,72.6 177.7,76.4 178.7,80.4 179.6,84.7 180.6,89.1 
		181.6,93.6 182.6,98 183.5,102.2 184.5,105.5 185.5,106.9 186.5,105.7 187.4,102.3 188.4,97.8 189.4,92.9 190.3,87.7 191.3,82.6 
		192.3,77.5 193.3,72.6 194.2,67.9 195.2,63.4 196.2,59.3 197.2,55.5 198.1,52.2 199.1,49.2 200.1,46.7 	"/>
	<polyline class="st4" points="35.6,74.9 36.6,69 37.6,65 38.6,62.9 39.5,58.2 40.5,55.4 41.5,53.8 42.5,51.2 43.4,49.3 44.4,49.1 
		45.4,49.2 46.4,49.5 47.3,50.4 48.3,52 49.3,53.9 50.2,56.2 51.2,58.9 52.2,61.7 53.2,64.3 54.1,67.4 55.1,71 56.1,75 57.1,78.7 
		58,82.1 59,85.9 60,90.4 60.9,95.2 61.9,99.8 62.9,103.8 63.9,107.8 64.8,68.5 65.8,117.8 66.8,114.3 67.8,110.3 68.7,106.4 
		69.7,99.5 70.7,98.7 71.6,94.8 72.6,90.9 73.6,86.9 74.6,82.8 75.5,78.6 76.5,74.4 77.5,70 78.5,65.6 79.4,61.2 80.4,56.9 
		81.4,52.6 82.3,48.4 83.3,44.3 84.3,40.5 85.3,36.9 86.2,33.6 87.2,30.6 88.2,28 89.2,25.7 90.1,23.9 91.1,22.4 92.1,21.4 
		93.1,20.7 94,20.5 95,20.7 96,21.1 96.9,22 97.9,23 98.9,24.3 99.9,25.8 100.8,27.5 101.8,29.1 102.8,30.9 103.8,32.5 104.7,34.1 
		105.7,35.6 106.7,36.9 107.6,38 108.6,39 109.6,39.8 110.6,40.4 111.5,41 112.5,41.5 113.5,41.9 114.5,42.3 115.4,42.9 116.4,43.6 
		117.4,44.4 118.3,45.4 119.3,46.7 120.3,48.3 121.3,50.2 122.2,52.4 123.2,54.9 124.2,57.7 125.2,60.8 126.1,64.3 127.1,68 
		128.1,72 129.1,76.3 130,80.7 131,85.4 132,90.1 132.9,95 133.9,99.9 134.9,104.8 135.9,109.5 136.8,113.4 137.8,113.8 
		138.8,110.4 139.8,106.1 140.7,101.8 141.7,97.6 142.7,93.6 143.6,89.9 144.6,86.4 145.6,83.1 146.6,80.2 147.5,77.6 148.5,75.2 
		149.5,73.2 150.5,71.4 151.4,69.9 152.4,68.6 153.4,67.6 154.3,66.7 155.3,66.1 156.3,65.5 157.3,65.1 158.2,64.7 159.2,64.3 
		160.2,64 161.2,63.7 162.1,63.3 163.1,62.9 164.1,62.5 165,62 166,61.5 167,61.1 168,60.6 168.9,60.2 169.9,59.8 170.9,59.6 
		171.9,59.5 172.8,59.5 173.8,59.8 174.8,60.3 175.8,61 176.7,61.9 177.7,63.1 178.7,64.6 179.6,66.4 180.6,68.5 181.6,70.8 
		182.6,73.5 183.5,76.3 184.5,79.4 185.5,82.8 186.5,86.3 187.4,90 188.4,93.8 189.4,97.7 190.3,101.6 191.3,105.4 192.3,109 
		193.3,111.6 194.2,112.2 195.2,110.3 196.2,107.4 197.2,104.1 198.1,100.8 199.1,97.7 200.1,94.8 	"/>
	<polyline class="st5" points="33,79.6 33.3,80.1 33.6,80.7 34,81.4 34.3,82.1 34.6,82.7 35,83.1 35.3,83.4 35.6,83.4 36,83.2 
		36.3,82.9 36.7,82.4 37,81.7 37.3,81 37.7,80.1 38,79 38.3,77.8 38.7,76.3 39,74.6 39.3,72.5 39.7,70.3 40,67.7 40.3,65.1 
		40.7,62.3 41,59.5 41.4,56.8 41.7,54.4 42,52.1 42.4,50.3 42.7,48.8 43,47.8 43.4,47.3 43.7,47.2 44,47.5 44.4,48.3 44.7,49.3 
		45,50.7 45.4,52.2 45.7,53.8 46.1,55.4 46.4,56.8 46.7,58.1 47.1,59.1 47.4,59.8 47.7,60.1 48.1,60.1 48.4,59.7 48.7,59.1 
		49.1,58.3 49.4,57.5 49.7,56.5 50.1,55.7 50.4,55 50.7,54.5 51.1,54.2 51.4,54.3 51.8,54.6 52.1,55.3 52.4,56.3 52.8,57.5 53.1,59 
		53.4,60.6 53.8,62.4 54.1,64.1 54.4,65.9 54.8,67.6 55.1,69.1 55.4,70.5 55.8,71.7 56.1,72.7 56.5,73.6 56.8,74.4 57.1,75.2 
		57.5,76 57.8,76.9 58.1,78 58.5,79.2 58.8,80.5 59.1,82.1 59.5,83.9 59.8,85.8 60.1,87.9 60.5,90.1 60.8,92.4 61.5,97.1 61.8,99.4 
		62.2,101.5 62.5,103.5 62.8,105.2 63.2,106.5 63.5,107.6 63.8,108.3 64.2,108.7 64.5,108.9 64.8,109.1 65.2,109.2 65.5,109.4 
		65.9,109.7 66.2,110.2 66.5,110.8 66.9,111.5 67.2,112.3 67.5,113.1 67.9,113.7 68.2,114.1 68.5,114.1 68.9,113.7 69.2,113 
		69.5,112.2 69.9,111.4 70.2,110.6 70.5,110 70.9,109.5 71.2,109.1 71.6,108.8 71.9,108.6 72.2,108.4 72.6,108.2 72.9,107.9 
		73.2,107.4 73.6,106.6 73.9,105.5 74.2,104.1 74.6,102.4 74.9,100.6 75.2,98.5 75.6,96.4 75.9,94.3 76.3,92.2 76.6,90.1 76.9,88.1 
		77.3,86.2 77.6,84.5 77.9,82.8 78.3,81.3 78.6,79.8 78.9,78.4 79.3,77.1 79.6,75.7 79.9,74.3 80.3,72.8 80.6,71.3 80.9,69.7 
		81.3,68.1 81.6,66.4 82,64.7 82.3,63 82.6,61.3 83,59.7 83.3,58.1 83.6,56.6 84,55.1 84.3,53.6 84.6,52.2 85,50.7 85.3,49.2 
		85.6,47.6 86,45.9 86.3,44.2 86.7,42.5 87,40.7 87.3,39 87.7,37.3 88,35.8 88.3,34.5 88.7,33.3 89,32.4 89.3,31.8 89.7,31.5 
		90,31.5 90.3,31.8 90.7,32.3 91,33 91.4,33.9 91.7,34.8 92,35.7 92.4,36.6 92.7,37.2 93,37.6 93.4,37.8 93.7,37.6 94,37.2 
		94.4,36.5 94.7,35.6 95,34.5 95.4,33.4 95.7,32.3 96.1,31.2 96.4,30.2 96.7,29.3 97.1,28.6 97.4,27.9 97.7,27.4 98.1,27 98.4,26.6 
		98.7,26.4 99.1,26.2 99.4,26.1 99.7,26.1 100.1,26.1 100.4,26.3 100.7,26.6 101.1,27.1 101.4,27.7 101.8,28.5 102.1,29.3 
		102.4,30.4 102.8,31.5 103.1,32.7 103.4,34 103.8,35.2 104.1,36.4 104.4,37.5 104.8,38.5 105.1,39.4 105.4,40.1 105.8,40.7 
		106.1,41.2 106.5,41.7 106.8,42.1 107.1,42.5 107.5,43 107.8,43.6 108.1,44.4 108.5,45.3 108.8,46.4 109.1,47.6 109.5,48.9 
		109.8,50.3 110.1,51.7 110.5,52.9 110.8,53.8 111.2,54.4 111.5,54.5 111.8,54.1 112.2,53.2 112.5,51.9 112.8,50.2 113.2,48.3 
		113.5,46.3 113.8,44.4 114.2,42.8 114.5,41.5 114.8,40.7 115.2,40.5 115.5,40.8 115.8,41.8 116.2,43.4 116.5,45.5 116.9,48.1 
		117.2,51.1 117.5,54.3 117.9,57.5 118.2,60.5 118.5,63.2 118.9,65.3 119.2,66.7 119.5,67.2 119.9,66.9 120.2,65.9 120.5,64.4 
		120.9,62.5 121.2,60.6 121.6,58.7 121.9,57.1 122.2,55.8 122.6,55.1 122.9,54.9 123.2,55.2 123.6,56.1 123.9,57.6 124.2,59.5 
		124.6,61.8 124.9,64.4 125.2,67.2 125.6,69.9 125.9,72.5 126.3,74.8 126.6,76.8 126.9,78.4 127.3,79.7 127.6,80.6 127.9,81.3 
		128.3,81.9 128.6,82.6 128.9,83.4 129.3,84.4 129.6,85.6 129.9,87 130.3,88.5 130.6,90 130.9,91.4 131.3,92.5 131.6,93.1 132,93.3 
		132.3,93 132.6,92.4 133,91.6 133.3,90.8 133.6,90.1 134,89.6 134.3,89.6 134.6,90 135,90.8 135.3,92.1 135.6,93.9 136,96 
		136.3,98.5 136.7,101.1 137,103.9 137.3,106.4 137.7,108.5 138,109.7 138.3,109.6 138.7,108.4 139,106.7 139.3,104.8 139.7,103.1 
		140,101.6 140.3,100.4 140.7,99.6 141,99.2 141.4,99.1 141.7,99.4 142,99.9 142.4,100.6 142.7,101.4 143,102.3 143.4,103 
		143.7,103.5 144,103.6 144.4,103.2 144.7,102.5 145,101.3 145.4,99.8 145.7,98.2 146.1,96.3 146.4,94.4 146.7,92.5 147.1,90.5 
		147.4,88.6 147.7,86.8 148.1,85.1 148.4,83.5 148.7,82 149.1,80.6 149.4,79.5 149.7,78.5 150.1,77.7 150.4,77.1 150.7,76.7 
		151.1,76.4 151.4,76.3 151.8,76.2 152.1,76 152.4,75.8 152.8,75.5 153.1,74.9 153.4,74.1 153.8,73 154.1,71.7 154.4,70.2 
		154.8,68.5 155.1,66.8 155.4,65 155.8,63.3 156.1,61.7 156.5,60.3 156.8,59.1 157.1,58.2 157.5,57.5 157.8,57 158.1,56.7 
		158.5,56.6 158.8,56.6 159.1,56.6 159.5,56.6 159.8,56.6 160.1,56.4 160.5,56.1 160.8,55.6 161.1,54.9 161.5,54.1 161.8,53.2 
		162.2,52.3 162.5,51.4 162.8,50.6 163.2,49.8 163.5,49.2 163.8,48.8 164.2,48.5 164.5,48.4 164.8,48.4 165.2,48.5 165.5,48.7 
		165.8,48.9 166.2,49 166.5,49.1 166.9,49 167.2,48.8 167.5,48.4 167.9,47.9 168.2,47.3 168.5,46.7 168.9,46 169.2,45.4 169.5,45 
		169.9,44.7 170.2,44.6 170.5,44.6 170.9,44.9 171.2,45.4 171.6,45.9 171.9,46.5 172.2,47.1 172.6,47.6 172.9,48 173.2,48.2 
		173.6,48.2 173.9,48 174.2,47.7 174.6,47.2 174.9,46.7 175.2,46.2 175.6,45.8 175.9,45.7 176.2,45.8 176.6,46.1 176.9,46.8 
		177.3,47.8 177.6,49 177.9,50.4 178.3,51.9 178.6,53.5 178.9,55.1 179.3,56.6 179.6,58 179.9,59.1 180.3,60.1 180.6,60.9 
		180.9,61.7 181.3,62.4 181.6,63.1 182,64 182.3,65.2 182.6,66.6 183,68.4 183.3,70.6 183.6,73.1 184,76.1 184.3,79.4 184.6,82.9 
		185,86.8 185.3,90.7 185.6,94.7 186,98.6 186.3,102.3 186.7,105.3 187,107.5 187.3,108.3 187.7,107.8 188,106.4 188.3,104.7 
		188.7,102.9 189,101.3 189.3,99.9 189.7,98.7 190,97.6 190.3,96.7 190.7,95.7 191,94.7 191.4,93.5 191.7,92 192,90.3 192.4,88.4 
		192.7,86.2 193,83.8 193.4,81.3 193.7,78.6 194,75.8 194.4,72.9 194.7,69.9 195,66.9 195.4,63.7 195.7,60.5 196,57.2 196.4,53.8 
		196.7,50.4 197.1,46.9 197.4,43.4 197.7,40.1 198.1,36.8 198.4,33.6 198.7,30.6 199.1,27.8 199.4,25.1 199.7,22.7 200.1,20.5 	"/>
	<rect x="24.6" y="15.6" class="st6" width="183.8" height="107.2"/>
</g>
<text transform="matrix(1 0 0 1 5.4644 121.1938)" class="st7 st8 st9">0.0</text>
<text transform="matrix(1 0 0 1 5.4644 72.3173)" class="st7 st8 st9">0.5</text>
<text transform="matrix(1 0 0 1 5.4644 23.4409)" class="st7 st8 st9">1.0</text>
<line class="st10" x1="22.9" y1="118.3" x2="24.6" y2="118.3"/>
<line class="st10" x1="22.9" y1="93.8" x2="24.6" y2="93.8"/>
<line class="st10" x1="22.9" y1="69.4" x2="24.6" y2="69.4"/>
<path id="SVGID_x5F_3_x5F_" class="st11" d="M22.9,44.9h1.8"/>
<text class="st12 st9"><textPath  xlink:href="#SVGID_x5F_3_x5F_" startOffset="0%">
 </textPath>
</text>
<line class="st10" x1="22.9" y1="20.5" x2="24.6" y2="20.5"/>
<line class="st10" x1="32.3" y1="124.6" x2="32.3" y2="122.8"/>
<line class="st10" x1="65.9" y1="124.6" x2="65.9" y2="122.8"/>
<line class="st10" x1="99.4" y1="124.6" x2="99.4" y2="122.8"/>
<line class="st10" x1="133" y1="124.6" x2="133" y2="122.8"/>
<line class="st10" x1="166.5" y1="124.6" x2="166.5" y2="122.8"/>
<line class="st10" x1="200.1" y1="124.6" x2="200.1" y2="122.8"/>
<text transform="matrix(1 0 0 1 381.6579 258.5351)"><tspan x="0" y="0" class="st7 st13 st14">f</tspan><tspan x="3.9" y="0" class="st7 st8 st14">, кГц</tspan></text>
<text transform="matrix(1 0 0 1 180.4814 258.5352)"><tspan x="0" y="0" class="st7 st13 st14">f</tspan><tspan x="3.9" y="0" class="st7 st8 st14">, кГц</tspan></text>
<text transform="matrix(1 0 0 1 3.6579 42.1468)" class="st7 st8 st14">|v|</text>
<text transform="matrix(1 0 0 1 5.4644 160.735)" class="st7 st8 st14">|v|</text>
<g>
	<defs>
		<rect id="SVGID_4_" x="24.6" y="135.2" width="184.4" height="107.8"/>
	</defs>
	<clipPath id="SVGID_5_">
		<use xlink:href="#SVGID_4_"  style="overflow:visible;"/>
	</clipPath>
	<rect x="24.6" y="135.2" class="st15" width="183.8" height="107.2"/>
	<line class="st16" x1="24.6" y1="225.6" x2="208.4" y2="225.6"/>
	<line class="st16" x1="24.6" y1="201.2" x2="208.4" y2="201.2"/>
	<line class="st16" x1="24.6" y1="176.8" x2="208.4" y2="176.8"/>
	<line class="st16" x1="24.6" y1="152.3" x2="208.4" y2="152.3"/>
	<line class="st16" x1="49.1" y1="242.4" x2="49.1" y2="135.2"/>
	<line class="st16" x1="82.6" y1="242.4" x2="82.6" y2="135.2"/>
	<line class="st16" x1="116.2" y1="242.4" x2="116.2" y2="135.2"/>
	<line class="st16" x1="149.7" y1="242.4" x2="149.7" y2="135.2"/>
	<line class="st16" x1="183.3" y1="242.4" x2="183.3" y2="135.2"/>
	<line class="st17" x1="24.6" y1="237.9" x2="208.4" y2="237.9"/>
	<line class="st17" x1="24.6" y1="213.4" x2="208.4" y2="213.4"/>
	<line class="st17" x1="24.6" y1="189" x2="208.4" y2="189"/>
	<line class="st17" x1="24.6" y1="164.5" x2="208.4" y2="164.5"/>
	<line class="st17" x1="24.6" y1="140.1" x2="208.4" y2="140.1"/>
	<line class="st17" x1="32.3" y1="242.4" x2="32.3" y2="135.2"/>
	<line class="st17" x1="65.9" y1="242.4" x2="65.9" y2="135.2"/>
	<line class="st17" x1="99.4" y1="242.4" x2="99.4" y2="135.2"/>
	<line class="st17" x1="133" y1="242.4" x2="133" y2="135.2"/>
	<line class="st17" x1="166.5" y1="242.4" x2="166.5" y2="135.2"/>
	<line class="st17" x1="200.1" y1="242.4" x2="200.1" y2="135.2"/>
	<polyline class="st18" points="35.6,178.3 36.6,170.4 37.6,165.2 38.6,162.5 39.5,156.4 40.5,153 41.5,151.2 42.5,148.1 
		43.4,146.1 44.4,146.2 45.4,146.8 46.4,147.6 47.3,149.4 48.3,151.9 49.3,154.8 50.2,158.2 51.2,162.2 52.2,166.2 53.2,170.1 
		54.1,174.4 55.1,179.5 56.1,185 57.1,190.2 58,195 59,200.2 60,206.1 60.9,212.4 61.9,218.2 62.9,223.4 63.9,228.2 64.8,164.3 
		65.8,233.9 66.8,229.6 67.8,225.1 68.7,220.8 69.7,213.1 70.7,212.3 71.6,208.2 72.6,204 73.6,199.8 74.6,195.5 75.5,191.1 
		76.5,186.7 77.5,182.2 78.5,177.7 79.4,173.2 80.4,168.7 81.4,164.4 82.3,160.3 83.3,156.4 84.3,152.8 85.3,149.6 86.2,146.7 
		87.2,144.4 88.2,142.5 89.2,141.2 90.1,140.4 91.1,140.1 92.1,140.4 93.1,141.3 94,142.6 95,144.5 96,146.9 96.9,149.7 97.9,152.8 
		98.9,156.3 99.9,160 100.8,163.9 101.8,168 102.8,172 103.8,176 104.7,179.8 105.7,183.5 106.7,186.9 107.6,189.9 108.6,192.6 
		109.6,195 110.6,197 111.5,198.7 112.5,200.3 113.5,201.6 114.5,202.9 115.4,204.3 116.4,205.8 117.4,207.5 118.3,209.5 
		119.3,211.8 120.3,214.5 121.3,217.5 122.2,220.9 123.2,224.7 124.2,228.8 125.2,233.3 126.1,237.6 127.1,232.6 128.1,227.3 
		129.1,221.8 130,216.2 131,210.5 132,204.7 132.9,199 133.9,193.3 134.9,187.7 135.9,182.3 136.8,177 137.8,172 138.8,167.3 
		139.8,163 140.7,158.9 141.7,155.3 142.7,152 143.6,149.2 144.6,146.7 145.6,144.7 146.6,143.2 147.5,142 148.5,141.3 149.5,140.9 
		150.5,140.9 151.4,141.2 152.4,141.9 153.4,142.8 154.3,143.9 155.3,145.3 156.3,146.8 157.3,148.4 158.2,150.1 159.2,151.9 
		160.2,153.7 161.2,155.5 162.1,157.4 163.1,159.2 164.1,161 165,162.7 166,164.5 167,166.4 168,168.2 168.9,170.2 169.9,172.3 
		170.9,174.5 171.9,176.9 172.8,179.5 173.8,182.3 174.8,185.4 175.8,188.7 176.7,192.2 177.7,196 178.7,200 179.6,204.3 
		180.6,208.7 181.6,213.2 182.6,217.6 183.5,221.8 184.5,225.1 185.5,226.5 186.5,225.3 187.4,221.9 188.4,217.4 189.4,212.5 
		190.3,207.3 191.3,202.2 192.3,197.1 193.3,192.2 194.2,187.5 195.2,183 196.2,178.9 197.2,175.1 198.1,171.8 199.1,168.8 
		200.1,166.3 	"/>
	<polyline class="st19" points="35.6,194.5 36.6,188.6 37.6,184.6 38.6,182.5 39.5,177.8 40.5,175 41.5,173.4 42.5,170.8 
		43.4,168.9 44.4,168.7 45.4,168.8 46.4,169.1 47.3,170 48.3,171.6 49.3,173.5 50.2,175.8 51.2,178.5 52.2,181.3 53.2,183.9 
		54.1,187 55.1,190.6 56.1,194.6 57.1,198.3 58,201.7 59,205.5 60,210 60.9,214.8 61.9,219.4 62.9,223.5 63.9,227.4 64.8,188.1 
		65.8,237.4 66.8,233.9 67.8,229.9 68.7,226 69.7,219.1 70.7,218.3 71.6,214.4 72.6,210.5 73.6,206.5 74.6,202.4 75.5,198.2 
		76.5,194 77.5,189.6 78.5,185.2 79.4,180.8 80.4,176.5 81.4,172.2 82.3,168 83.3,163.9 84.3,160.1 85.3,156.5 86.2,153.2 
		87.2,150.2 88.2,147.6 89.2,145.3 90.1,143.5 91.1,142 92.1,141 93.1,140.3 94,140.1 95,140.3 96,140.7 96.9,141.6 97.9,142.6 
		98.9,144 99.9,145.4 100.8,147.1 101.8,148.8 102.8,150.5 103.8,152.1 104.7,153.7 105.7,155.2 106.7,156.5 107.6,157.6 
		108.6,158.6 109.6,159.4 110.6,160 111.5,160.6 112.5,161.1 113.5,161.5 114.5,161.9 115.4,162.5 116.4,163.2 117.4,164 118.3,165 
		119.3,166.3 120.3,167.9 121.3,169.8 122.2,172 123.2,174.5 124.2,177.3 125.2,180.4 126.1,183.9 127.1,187.6 128.1,191.6 
		129.1,195.9 130,200.3 131,205 132,209.7 132.9,214.6 133.9,219.5 134.9,224.4 135.9,229.1 136.8,233 137.8,233.4 138.8,230 
		139.8,225.7 140.7,221.4 141.7,217.2 142.7,213.2 143.6,209.5 144.6,206 145.6,202.7 146.6,199.8 147.5,197.2 148.5,194.8 
		149.5,192.8 150.5,191 151.4,189.5 152.4,188.2 153.4,187.2 154.3,186.3 155.3,185.7 156.3,185.1 157.3,184.7 158.2,184.3 
		159.2,183.9 160.2,183.6 161.2,183.3 162.1,182.9 163.1,182.5 164.1,182.1 165,181.6 166,181.2 167,180.7 168,180.2 168.9,179.8 
		169.9,179.4 170.9,179.2 171.9,179.1 172.8,179.1 173.8,179.4 174.8,179.9 175.8,180.6 176.7,181.5 177.7,182.7 178.7,184.2 
		179.6,186 180.6,188.1 181.6,190.4 182.6,193.1 183.5,195.9 184.5,199 185.5,202.4 186.5,205.9 187.4,209.6 188.4,213.4 
		189.4,217.3 190.3,221.2 191.3,225 192.3,228.6 193.3,231.2 194.2,231.8 195.2,229.9 196.2,227 197.2,223.7 198.1,220.4 
		199.1,217.3 200.1,214.4 	"/>
	<polyline class="st20" points="33,218.4 33.3,216.4 33.6,214.1 34,211.6 34.3,209.3 34.6,207.1 35,205.1 35.3,203.3 35.6,201.6 
		36,200 36.3,198.3 36.7,196.5 37,194.5 37.3,192.2 37.7,189.6 38,186.7 38.3,183.6 38.7,180.5 39,177.3 39.3,174.2 39.7,171.3 
		40,168.6 40.3,166.4 40.7,164.5 41,163.1 41.4,162.1 41.7,161.5 42,161.4 42.4,161.6 42.7,162.1 43,162.9 43.4,163.9 43.7,165 
		44,166.2 44.4,167.4 44.7,168.6 45,169.7 45.4,170.7 45.7,171.5 46.1,172.2 46.4,172.7 46.7,173.1 47.1,173.2 47.4,173.1 
		47.7,172.8 48.1,172.4 48.4,171.8 48.7,171 49.1,170.2 49.4,169.4 49.7,168.6 50.1,167.9 50.4,167.4 50.7,167 51.1,166.9 51.4,167 
		51.8,167.4 52.1,168 52.4,168.9 52.8,170.1 53.1,171.5 53.4,173.2 53.8,175 54.1,176.9 54.4,179 54.8,181.1 55.1,183.3 55.4,185.4 
		55.8,187.5 56.1,189.5 56.5,191.4 56.8,193.2 57.1,194.7 57.5,196.1 57.8,197.2 58.1,198.2 58.5,198.9 58.8,199.5 59.1,200 
		59.5,200.4 59.8,200.8 60.1,201.1 60.5,201.5 60.8,202 61.2,202.6 61.5,203.4 61.8,204.2 62.2,205.2 62.5,206.3 62.8,207.5 
		63.2,208.8 63.5,210.1 63.8,211.5 64.2,212.9 64.5,214.4 64.8,215.8 65.2,217.2 65.5,218.5 65.9,219.7 66.2,221 66.5,222.1 
		66.9,223.2 67.2,224.2 67.5,225.1 67.9,226 68.2,227 68.5,227.9 68.9,228.9 69.2,229.9 69.5,230.9 69.9,231.9 70.2,232.6 70.5,233 
		70.9,232.7 71.2,231.9 71.6,230.7 71.9,229.3 72.2,227.7 72.6,226.1 72.9,224.5 73.2,223 73.6,221.5 73.9,220 74.2,218.5 74.6,217 
		74.9,215.4 75.2,213.7 75.6,211.8 75.9,209.8 76.3,207.6 76.6,205.1 76.9,202.6 77.3,199.9 77.6,197.2 77.9,194.6 78.3,191.9 
		78.6,189.4 78.9,187 79.3,184.8 79.6,182.7 79.9,180.8 80.3,179.1 80.6,177.5 80.9,176 81.3,174.5 81.6,173 82,171.5 82.3,169.9 
		82.6,168.1 83,166.2 83.3,164.2 83.6,162.1 84,159.9 84.3,157.7 84.6,155.5 85,153.3 85.3,151.2 85.6,149.3 86,147.5 86.3,146 
		86.7,144.7 87,143.7 87.3,143 87.7,142.5 88,142.3 88.3,142.2 88.7,142.3 89,142.4 89.3,142.6 89.7,142.9 90,143.1 90.3,143.2 
		90.7,143.2 91,143.2 91.4,143.2 91.7,143.1 92,143 92.4,143 92.7,143.1 93,143.3 93.4,143.6 93.7,144.2 94,144.9 94.4,145.7 
		94.7,146.7 95,147.7 95.4,148.8 95.7,149.7 96.1,150.6 96.4,151.3 96.7,151.8 97.1,152.1 97.4,152.1 97.7,151.9 98.1,151.4 
		98.4,150.8 98.7,150 99.1,149.1 99.4,148.3 99.7,147.4 100.1,146.6 100.4,145.9 100.7,145.3 101.1,144.9 101.4,144.6 101.8,144.4 
		102.1,144.4 102.4,144.5 102.8,144.7 103.1,144.9 103.4,145.2 103.8,145.4 104.1,145.7 104.4,145.9 104.8,145.9 105.1,145.9 
		105.4,145.8 105.8,145.5 106.1,145.2 106.5,144.7 106.8,144.1 107.1,143.5 107.5,142.9 107.8,142.2 108.1,141.6 108.5,141.1 
		108.8,140.7 109.1,140.3 109.5,140.1 109.8,140.1 110.1,140.2 110.5,140.5 110.8,141 111.2,141.6 111.5,142.4 111.8,143.4 
		112.2,144.6 112.5,145.8 112.8,147.3 113.2,148.8 113.5,150.4 113.8,152.1 114.2,153.9 114.5,155.7 114.8,157.5 115.2,159.3 
		115.5,161 115.8,162.7 116.2,164.2 116.5,165.6 116.9,166.9 117.2,168.1 117.5,169.1 117.9,170 118.2,170.7 118.5,171.4 118.9,172 
		119.2,172.7 119.5,173.3 119.9,174 120.2,174.8 120.5,175.7 120.9,176.6 121.2,177.7 121.6,178.9 121.9,180.1 122.2,181.3 
		122.6,182.5 122.9,183.7 123.2,184.7 123.6,185.6 123.9,186.3 124.2,186.8 124.6,187.1 124.9,187.3 125.2,187.3 125.6,187.3 
		125.9,187.3 126.3,187.2 126.6,187.3 126.9,187.5 127.3,187.8 127.6,188.3 127.9,188.9 128.3,189.7 128.6,190.6 128.9,191.6 
		129.3,192.6 129.6,193.7 129.9,194.7 130.3,195.6 130.6,196.5 130.9,197.2 131.3,197.8 131.6,198.3 132,198.8 132.3,199.2 
		132.6,199.7 133,200.4 133.3,201.2 133.6,202.1 134,203.3 134.3,204.8 134.6,206.5 135,208.4 135.3,210.5 135.6,212.7 136,214.9 
		136.3,217.2 136.7,219.2 137,221 137.3,222.3 137.7,223.1 138,223.4 138.3,223.2 138.7,222.7 139.3,221.4 139.7,220.8 140,220.4 
		140.3,220.1 140.7,219.9 141,219.6 141.4,219.2 141.7,218.6 142,217.6 142.4,216.2 142.7,214.4 143,212.4 143.4,210.1 143.7,207.7 
		144,205.2 144.4,202.9 144.7,200.7 145,198.8 145.4,197.1 145.7,195.7 146.1,194.5 146.4,193.6 146.7,192.9 147.1,192.4 147.4,192 
		147.7,191.6 148.1,191.2 148.4,190.7 148.7,190.1 149.1,189.3 149.4,188.5 149.7,187.5 150.1,186.6 150.4,185.6 150.7,184.6 
		151.1,183.8 151.4,183 151.8,182.4 152.1,182 152.4,181.6 152.8,181.4 153.1,181.2 153.4,181.1 153.8,180.9 154.1,180.6 
		154.4,180.1 154.8,179.5 155.1,178.6 155.4,177.5 155.8,176.1 156.1,174.6 156.5,172.9 156.8,171.2 157.1,169.5 157.5,167.9 
		157.8,166.5 158.1,165.3 158.5,164.3 158.8,163.7 159.1,163.3 159.5,163.3 159.8,163.5 160.1,163.9 160.5,164.5 160.8,165.1 
		161.1,165.7 161.5,166.3 161.8,166.6 162.2,166.6 162.5,166.3 162.8,165.8 163.2,164.9 163.5,163.8 163.8,162.6 164.2,161.2 
		164.5,159.8 164.8,158.5 165.2,157.4 165.5,156.4 165.8,155.6 166.2,155 166.5,154.7 166.9,154.5 167.2,154.5 167.5,154.6 
		167.9,154.8 168.2,155 168.5,155.1 168.9,155 169.2,154.9 169.5,154.6 169.9,154.1 170.2,153.4 170.5,152.7 170.9,151.9 171.2,151 
		171.6,150.3 171.9,149.6 172.2,149.1 172.6,148.8 172.9,148.7 173.2,148.8 173.6,149.2 173.9,149.7 174.2,150.3 174.6,151 
		174.9,151.8 175.2,152.5 175.6,153.2 175.9,153.8 176.2,154.3 176.6,154.6 176.9,154.8 177.3,154.9 177.6,154.9 177.9,155 
		178.3,155.1 178.6,155.3 178.9,155.6 179.3,156.2 179.6,156.9 179.9,157.8 180.3,158.8 180.6,160.1 180.9,161.5 181.3,163.1 
		181.6,164.7 182,166.5 182.3,168.2 182.6,170 183,171.8 183.3,173.7 183.6,175.5 184,177.4 184.3,179.3 184.6,181.2 185,183.2 
		185.3,185.3 185.6,187.4 186,189.5 186.3,191.7 186.7,193.8 187,195.9 187.3,198 187.7,199.9 188,201.8 188.3,203.6 188.7,205.2 
		189,206.7 189.3,208.1 189.7,209.4 190,210.6 190.3,211.8 190.7,212.9 191,213.9 191.4,214.8 191.7,215.5 192,215.7 192.4,215.6 
		192.7,214.8 193,213.5 193.4,211.6 193.7,209.3 194,206.6 194.4,203.7 194.7,200.8 195,197.7 195.4,194.8 195.7,192.1 196,189.5 
		196.4,187.2 196.7,185.2 197.1,183.5 197.4,181.9 197.7,180.5 198.1,179.2 198.4,177.9 198.7,176.5 199.1,174.9 199.4,173 
		199.7,170.7 200.1,168.1 	"/>
	<rect x="24.6" y="135.2" class="st21" width="183.8" height="107.2"/>
</g>
<text transform="matrix(1 0 0 1 5.4644 240.7983)" class="st7 st8 st9">0.0</text>
<text transform="matrix(1 0 0 1 5.4644 191.9213)" class="st7 st8 st9">0.5</text>
<text transform="matrix(1 0 0 1 5.4644 143.0453)" class="st7 st8 st9">1.0</text>
<line class="st10" x1="22.9" y1="237.9" x2="24.6" y2="237.9"/>
<line class="st10" x1="22.9" y1="213.4" x2="24.6" y2="213.4"/>
<line class="st10" x1="22.9" y1="189" x2="24.6" y2="189"/>
<line class="st10" x1="22.9" y1="164.5" x2="24.6" y2="164.5"/>
<line class="st10" x1="22.9" y1="140.1" x2="24.6" y2="140.1"/>
<line class="st10" x1="32.3" y1="244.2" x2="32.3" y2="242.4"/>
<line class="st10" x1="65.9" y1="244.2" x2="65.9" y2="242.4"/>
<line class="st10" x1="99.4" y1="244.2" x2="99.4" y2="242.4"/>
<line class="st10" x1="133" y1="244.2" x2="133" y2="242.4"/>
<line class="st10" x1="166.5" y1="244.2" x2="166.5" y2="242.4"/>
<line class="st10" x1="200.1" y1="244.2" x2="200.1" y2="242.4"/>
<g>
	<g>
		<defs>
			<rect id="SVGID_6_" x="225.6" y="134.9" width="184.4" height="107.8"/>
		</defs>
		<clipPath id="SVGID_7_">
			<use xlink:href="#SVGID_6_"  style="overflow:visible;"/>
		</clipPath>
		<rect x="225.6" y="134.9" class="st22" width="183.8" height="107.2"/>
		<line class="st23" x1="225.6" y1="225.3" x2="409.5" y2="225.3"/>
		<line class="st23" x1="225.6" y1="200.9" x2="409.5" y2="200.9"/>
		<line class="st23" x1="225.6" y1="176.4" x2="409.5" y2="176.4"/>
		<line class="st23" x1="225.6" y1="152" x2="409.5" y2="152"/>
		<line class="st23" x1="250.1" y1="242.1" x2="250.1" y2="134.9"/>
		<line class="st23" x1="283.7" y1="242.1" x2="283.7" y2="134.9"/>
		<line class="st23" x1="317.2" y1="242.1" x2="317.2" y2="134.9"/>
		<line class="st23" x1="350.8" y1="242.1" x2="350.8" y2="134.9"/>
		<line class="st23" x1="384.3" y1="242.1" x2="384.3" y2="134.9"/>
		<line class="st24" x1="225.6" y1="237.5" x2="409.5" y2="237.5"/>
		<line class="st24" x1="225.6" y1="213.1" x2="409.5" y2="213.1"/>
		<line class="st24" x1="225.6" y1="188.7" x2="409.5" y2="188.7"/>
		<line class="st24" x1="225.6" y1="164.2" x2="409.5" y2="164.2"/>
		<line class="st24" x1="225.6" y1="139.8" x2="409.5" y2="139.8"/>
		<line class="st24" x1="233.3" y1="242.1" x2="233.3" y2="134.9"/>
		<line class="st24" x1="266.9" y1="242.1" x2="266.9" y2="134.9"/>
		<line class="st24" x1="300.4" y1="242.1" x2="300.4" y2="134.9"/>
		<line class="st24" x1="334" y1="242.1" x2="334" y2="134.9"/>
		<line class="st24" x1="367.6" y1="242.1" x2="367.6" y2="134.9"/>
		<line class="st24" x1="401.1" y1="242.1" x2="401.1" y2="134.9"/>
		<polyline class="st25" points="236.7,177.9 237.7,170.1 238.6,164.8 239.6,162.2 240.6,156.1 241.5,152.7 242.5,150.8 
			243.5,147.8 244.5,145.8 245.4,145.8 246.4,146.5 247.4,147.3 248.4,149.1 249.3,151.5 250.3,154.4 251.3,157.9 252.2,161.9 
			253.2,165.9 254.2,169.8 255.2,174.1 256.1,179.2 257.1,184.7 258.1,189.8 259.1,194.7 260,199.9 261,205.8 262,212.1 263,217.9 
			263.9,223 264.9,227.9 265.9,164 266.8,233.6 267.8,229.3 268.8,224.8 269.8,220.4 270.7,212.8 271.7,212 272.7,207.8 
			273.7,203.7 274.6,199.5 275.6,195.2 276.6,190.8 277.5,186.4 278.5,181.9 279.5,177.3 280.5,172.8 281.4,168.4 282.4,164.1 
			283.4,159.9 284.4,156 285.3,152.5 286.3,149.2 287.3,146.4 288.2,144 289.2,142.2 290.2,140.8 291.2,140 292.1,139.8 
			293.1,140.1 294.1,140.9 295.1,142.3 296,144.2 297,146.6 298,149.3 298.9,152.5 299.9,156 300.9,159.7 301.9,163.6 302.8,167.6 
			303.8,171.7 304.8,175.7 305.8,179.5 306.7,183.2 307.7,186.5 308.7,189.6 309.7,192.3 310.6,194.7 311.6,196.7 312.6,198.4 
			313.5,199.9 314.5,201.3 315.5,202.6 316.5,203.9 317.4,205.5 318.4,207.2 319.4,209.2 320.4,211.5 321.3,214.1 322.3,217.2 
			323.3,220.6 324.2,224.3 325.2,228.5 326.2,232.9 327.2,237.2 328.1,232.3 329.1,227 330.1,221.5 331.1,215.9 332,210.2 
			333,204.4 334,198.6 334.9,192.9 335.9,187.4 336.9,181.9 337.9,176.7 338.8,171.7 339.8,167 340.8,162.6 341.8,158.6 
			342.7,154.9 343.7,151.7 344.7,148.8 345.7,146.4 346.6,144.4 347.6,142.8 348.6,141.7 349.5,140.9 350.5,140.6 351.5,140.6 
			352.5,140.9 353.4,141.6 354.4,142.5 355.4,143.6 356.4,145 357.3,146.5 358.3,148.1 359.3,149.8 360.2,151.6 361.2,153.4 
			362.2,155.2 363.2,157 364.1,158.8 365.1,160.6 366.1,162.4 367.1,164.2 368,166 369,167.9 370,169.9 370.9,172 371.9,174.2 
			372.9,176.6 373.9,179.2 374.8,182 375.8,185 376.8,188.3 377.8,191.9 378.7,195.7 379.7,199.7 380.7,203.9 381.6,208.3 
			382.6,212.8 383.6,217.3 384.6,221.5 385.5,224.8 386.5,226.2 387.5,225 388.5,221.6 389.4,217.1 390.4,212.1 391.4,207 
			392.4,201.8 393.3,196.8 394.3,191.8 395.3,187.1 396.2,182.7 397.2,178.6 398.2,174.8 399.2,171.4 400.1,168.5 401.1,166 		"/>
		<polyline class="st26" points="236.7,184.1 237.7,176.2 238.6,171.2 239.6,168 240.6,161 241.5,157 242.5,154 243.5,148.9 
			244.5,145.2 245.4,143.7 246.4,142.2 247.4,140.3 248.4,139.8 249.3,140.5 250.3,141.5 251.3,142.6 252.2,144.2 253.2,146.4 
			254.2,148.8 255.2,151.5 256.1,154.7 257.1,158 258.1,161.2 259.1,164.5 260,168.1 261,172.3 262,176.6 263,180.4 263.9,184 
			264.9,187.9 265.9,170.6 266.8,197.6 267.8,201.6 268.8,205.6 269.8,209.6 270.7,218 271.7,217.9 272.7,222.3 273.7,226.8 
			274.6,231.4 275.6,235.3 276.6,232.7 277.5,227.7 278.5,222.3 279.5,216.8 280.5,211.3 281.4,205.8 282.4,200.2 283.4,194.9 
			284.4,189.6 285.3,184.6 286.3,179.9 287.3,175.4 288.2,171.3 289.2,167.6 290.2,164.3 291.2,161.4 292.1,159 293.1,157 
			294.1,155.4 295.1,154.3 296,153.5 297,153.1 298,153 298.9,153.1 299.9,153.4 300.9,153.8 301.9,154.2 302.8,154.6 303.8,154.9 
			304.8,155.1 305.8,155 306.7,154.7 307.7,154.1 308.7,153.3 309.7,152.2 310.6,150.9 311.6,149.6 312.6,148.1 313.5,146.6 
			314.5,145.2 315.5,143.9 316.5,142.8 317.4,141.9 318.4,141.4 319.4,141.2 320.4,141.4 321.3,142 322.3,143 323.3,144.5 
			324.2,146.5 325.2,149 326.2,151.8 327.2,155.2 328.1,158.9 329.1,163.1 330.1,167.6 331.1,172.4 332,177.5 333,182.8 334,188.3 
			334.9,194 335.9,199.7 336.9,205.3 337.9,210.9 338.8,216.2 339.8,220.9 340.8,224.6 341.8,226.4 342.7,225.7 343.7,223.1 
			344.7,219.6 345.7,215.8 346.6,212.2 347.6,208.7 348.6,205.5 349.5,202.5 350.5,200 351.5,197.7 352.5,195.8 353.4,194.1 
			354.4,192.7 355.4,191.6 356.4,190.6 357.3,189.8 358.3,189 359.3,188.2 360.2,187.3 361.2,186.3 362.2,185.2 363.2,183.8 
			364.1,182.2 365.1,180.3 366.1,178.2 367.1,175.8 368,173.3 369,170.6 370,167.7 370.9,164.9 371.9,162 372.9,159.2 373.9,156.5 
			374.8,153.9 375.8,151.5 376.8,149.3 377.8,147.4 378.7,145.8 379.7,144.4 380.7,143.4 381.6,142.7 382.6,142.4 383.6,142.4 
			384.6,142.7 385.5,143.3 386.5,144.2 387.5,145.4 388.5,146.8 389.4,148.4 390.4,150.3 391.4,152.2 392.4,154.2 393.3,156.3 
			394.3,158.4 395.3,160.5 396.2,162.4 397.2,164.3 398.2,166 399.2,167.5 400.1,168.9 401.1,170.1 		"/>
		<polyline class="st27" points="234,208.5 234.3,208.4 234.7,208.1 235,207.4 235.3,206.3 235.7,204.8 236,202.7 236.3,200.2 
			236.7,197.2 237,193.9 237.4,190.4 237.7,186.8 238,183.2 238.4,179.6 238.7,176.1 239,172.8 239.4,169.7 239.7,166.8 240,164.1 
			240.4,161.7 240.7,159.5 241,157.5 241.4,155.7 241.7,154.2 242.1,152.7 242.4,151.5 242.7,150.4 243.1,149.4 243.4,148.6 
			243.7,147.8 244.1,147.1 244.4,146.5 244.7,146 245.1,145.5 245.4,145.1 245.7,144.6 246.1,144.2 246.4,143.7 246.7,143.2 
			247.1,142.8 247.4,142.3 247.8,141.8 248.1,141.4 248.4,140.9 248.8,140.5 249.1,140.2 249.4,140 249.8,139.8 250.1,139.8 
			250.4,139.9 250.8,140.1 251.1,140.4 251.4,140.8 251.8,141.4 252.1,142 252.5,142.7 252.8,143.5 253.1,144.3 253.5,145.1 
			253.8,145.9 254.1,146.7 254.5,147.4 254.8,148.2 255.1,148.9 255.5,149.5 255.8,150.2 256.1,150.8 256.5,151.5 256.8,152.2 
			257.2,153 257.5,153.8 257.8,154.8 258.2,155.8 258.5,157 258.8,158.3 259.2,159.7 259.5,161.2 259.8,162.8 260.2,164.4 
			260.5,166.1 260.8,167.9 261.2,169.6 261.5,171.2 261.8,172.9 262.2,174.4 262.5,175.7 262.9,177 263.2,178.1 263.5,179.1 
			263.9,179.9 264.2,180.6 264.5,181.1 264.9,181.6 265.2,181.9 265.5,182.3 265.9,182.6 266.2,183 266.5,183.4 266.9,183.9 
			267.2,184.6 267.6,185.3 267.9,186.2 268.2,187.2 268.6,188.4 268.9,189.7 269.2,191.1 269.6,192.7 269.9,194.3 270.2,196.1 
			270.6,197.9 270.9,199.7 271.2,201.6 271.6,203.4 271.9,205.1 272.3,206.9 272.6,208.5 272.9,210 273.3,211.5 273.6,212.9 
			273.9,214.1 274.3,215.3 274.6,216.5 274.9,217.6 275.3,218.7 275.6,219.9 275.9,221.1 276.3,222.3 276.6,223.5 276.9,224.8 
			277.3,226.1 277.6,227.3 278,228.4 278.3,229.2 278.6,229.5 279,229.3 279.3,228.5 279.6,227.2 280,225.7 280.3,223.9 280.6,222 
			281,220.1 281.3,218.2 281.6,216.3 282,214.4 282.3,212.5 282.7,210.7 283,208.9 283.3,207.2 283.7,205.4 284,203.7 284.3,201.9 
			284.7,200.2 285,198.4 285.3,196.6 285.7,194.7 286,192.9 286.3,191.1 286.7,189.2 287,187.4 287.4,185.6 287.7,183.9 288,182.3 
			288.4,180.8 288.7,179.4 289,178.1 289.4,176.9 289.7,176 290,175.1 290.4,174.5 290.7,174.1 291,173.8 291.4,173.8 291.7,174 
			292,174.4 292.4,175 292.7,175.8 293.1,176.8 293.4,178 293.7,179.4 294.1,180.8 294.4,182.4 294.7,183.9 295.1,185.4 
			295.4,186.7 295.7,187.8 296.1,188.6 296.4,189 296.7,188.9 297.1,188.4 297.4,187.5 297.8,186.2 298.1,184.6 298.4,182.7 
			298.8,180.7 299.1,178.6 299.4,176.6 299.8,174.7 300.1,172.9 300.4,171.3 300.8,170 301.1,168.9 301.4,168 301.8,167.4 
			302.1,167.1 302.5,166.9 302.8,166.9 303.1,167.1 303.5,167.3 304.1,167.8 304.5,168 304.8,168.2 305.1,168.3 305.5,168.3 
			305.8,168.2 306.1,168 306.5,167.7 306.8,167.3 307.1,166.9 307.5,166.4 307.8,166 308.2,165.5 308.5,165 308.8,164.5 
			309.2,164.1 309.5,163.7 309.8,163.3 310.2,163 310.5,162.6 310.8,162.3 311.2,161.9 311.5,161.6 311.8,161.2 312.2,160.8 
			312.5,160.3 312.9,159.8 313.2,159.2 313.5,158.7 313.9,158 314.2,157.4 314.5,156.8 314.9,156.1 315.2,155.5 315.5,154.9 
			315.9,154.3 316.2,153.8 316.5,153.3 316.9,152.8 317.2,152.4 317.6,151.9 317.9,151.6 318.2,151.2 318.6,150.9 318.9,150.6 
			319.2,150.4 319.6,150.2 319.9,150 320.2,150 320.6,150.1 320.9,150.2 321.2,150.5 321.6,151 321.9,151.5 322.3,152.2 
			322.6,153.1 322.9,154 323.3,155.1 323.6,156.2 323.9,157.4 324.3,158.6 324.6,159.9 324.9,161.1 325.3,162.4 325.6,163.6 
			325.9,164.9 326.3,166.1 326.6,167.3 326.9,168.5 327.3,169.8 327.6,171 328,172.3 328.3,173.7 328.6,175.1 329,176.5 
			329.3,177.9 329.6,179.3 330,180.7 330.3,182.1 330.6,183.5 331,184.8 331.3,186.1 331.6,187.3 332,188.5 332.3,189.6 
			332.7,190.8 333,191.9 333.3,193 333.7,194.2 334,195.3 334.3,196.5 334.7,197.6 335,198.7 335.3,199.7 335.7,200.7 336,201.6 
			336.3,202.4 336.7,203.1 337,203.8 337.4,204.4 337.7,205 338,205.7 338.4,206.4 338.7,207.1 339,208 339.4,208.9 339.7,209.8 
			340,210.6 340.4,211.4 340.7,212 341,212.4 341.4,212.4 341.7,212 342,211.3 342.4,210.2 342.7,209 343.1,207.5 343.4,206 
			343.7,204.6 344.1,203.3 344.4,202.1 344.7,201.1 345.1,200.3 345.4,199.7 345.7,199.2 346.1,199 346.4,198.8 346.7,198.6 
			347.1,198.4 347.4,198.1 347.8,197.7 348.1,197.1 348.4,196.4 348.8,195.4 349.1,194.4 349.4,193.3 349.8,192.2 350.1,191.1 
			350.4,190 350.8,189.1 351.1,188.4 351.4,187.8 351.8,187.4 352.1,187.2 352.5,187.1 352.8,187.1 353.1,187.2 353.5,187.3 
			353.8,187.4 354.1,187.4 354.5,187.4 354.8,187.2 355.1,186.9 355.5,186.5 355.8,186 356.1,185.3 356.5,184.6 356.8,183.9 
			357.1,183.2 357.5,182.4 357.8,181.8 358.2,181.1 358.5,180.6 358.8,180.2 359.2,179.8 359.5,179.5 359.8,179.3 360.2,179.1 
			360.5,179 360.8,178.9 361.2,178.9 361.5,178.9 361.8,178.9 362.2,179 362.5,179 362.9,179.1 363.2,179.1 363.5,179.2 
			363.9,179.3 364.2,179.4 364.5,179.5 364.9,179.6 365.2,179.7 365.5,179.7 365.9,179.8 366.2,179.8 366.5,179.7 366.9,179.5 
			367.2,179.3 367.6,178.9 367.9,178.4 368.2,177.8 368.6,177 368.9,176.1 369.2,175 369.6,173.8 369.9,172.4 370.2,170.9 
			370.6,169.3 370.9,167.7 371.2,165.9 371.6,164.2 371.9,162.4 372.2,160.8 372.6,159.1 372.9,157.6 373.3,156.2 373.6,155 
			373.9,154 374.3,153.1 374.6,152.4 374.9,151.8 375.3,151.4 375.6,151.2 375.9,151 376.3,150.9 376.6,150.9 376.9,150.8 
			377.3,150.7 377.6,150.6 378,150.4 378.3,150.1 378.6,149.7 379,149.3 379.3,148.9 379.6,148.5 380,148.1 380.3,147.9 
			380.6,147.8 381,147.9 381.3,148.1 381.6,148.6 382,149.2 382.3,150.1 382.7,151.1 383,152.2 383.3,153.5 383.7,154.8 384,156.1 
			384.3,157.4 384.7,158.6 385,159.7 385.3,160.8 385.7,161.7 386,162.5 386.3,163.3 386.7,164.1 387,164.9 387.3,165.6 
			387.7,166.5 388,167.5 388.4,168.5 388.7,169.7 389,171 389.4,172.3 389.7,173.8 390,175.4 390.4,177.1 390.7,178.8 391,180.6 
			391.4,182.4 391.7,184.3 392,186.3 392.4,188.3 392.7,190.5 393.1,192.7 393.4,195 393.7,197.4 394.1,199.9 394.4,202.4 
			394.7,205 395.1,207.5 395.4,210 395.7,212.4 396.1,214.5 396.4,216.5 396.7,218 397.1,219.2 397.4,219.9 397.8,220.1 
			398.1,219.8 398.4,218.9 398.8,217.5 399.1,215.7 399.4,213.6 399.8,211.1 400.1,208.4 400.4,205.4 400.8,202.4 401.1,199.2 		"/>
		<rect x="225.6" y="134.9" class="st28" width="183.8" height="107.2"/>
	</g>
	<line class="st10" x1="223.9" y1="237.5" x2="225.6" y2="237.5"/>
	<line class="st10" x1="223.9" y1="213.1" x2="225.6" y2="213.1"/>
	<line class="st10" x1="223.9" y1="188.7" x2="225.6" y2="188.7"/>
	<line class="st10" x1="223.9" y1="164.2" x2="225.6" y2="164.2"/>
	<line class="st10" x1="223.9" y1="139.8" x2="225.6" y2="139.8"/>
	<line class="st10" x1="233.3" y1="243.9" x2="233.3" y2="242.1"/>
	<line class="st10" x1="266.9" y1="243.9" x2="266.9" y2="242.1"/>
	<line class="st10" x1="300.4" y1="243.9" x2="300.4" y2="242.1"/>
	<line class="st10" x1="334" y1="243.9" x2="334" y2="242.1"/>
	<line class="st10" x1="367.6" y1="243.9" x2="367.6" y2="242.1"/>
	<line class="st10" x1="401.1" y1="243.9" x2="401.1" y2="242.1"/>
</g>
<g>
	<defs>
		<rect id="SVGID_8_" x="226.5" y="15.3" width="184.4" height="107.8"/>
	</defs>
	<clipPath id="SVGID_9_">
		<use xlink:href="#SVGID_8_"  style="overflow:visible;"/>
	</clipPath>
	<rect x="226.5" y="15.3" class="st29" width="183.8" height="107.2"/>
	<line class="st30" x1="226.5" y1="105.7" x2="410.3" y2="105.7"/>
	<line class="st30" x1="226.5" y1="81.3" x2="410.3" y2="81.3"/>
	<line class="st30" x1="226.5" y1="56.8" x2="410.3" y2="56.8"/>
	<line class="st30" x1="226.5" y1="32.4" x2="410.3" y2="32.4"/>
	<line class="st30" x1="251" y1="122.5" x2="251" y2="15.3"/>
	<line class="st30" x1="284.5" y1="122.5" x2="284.5" y2="15.3"/>
	<line class="st30" x1="318.1" y1="122.5" x2="318.1" y2="15.3"/>
	<line class="st30" x1="351.6" y1="122.5" x2="351.6" y2="15.3"/>
	<line class="st30" x1="385.2" y1="122.5" x2="385.2" y2="15.3"/>
	<line class="st31" x1="226.5" y1="117.9" x2="410.3" y2="117.9"/>
	<line class="st31" x1="226.5" y1="93.5" x2="410.3" y2="93.5"/>
	<line class="st31" x1="226.5" y1="69" x2="410.3" y2="69"/>
	<line class="st31" x1="226.5" y1="44.6" x2="410.3" y2="44.6"/>
	<line class="st31" x1="226.5" y1="20.2" x2="410.3" y2="20.2"/>
	<line class="st31" x1="234.2" y1="122.5" x2="234.2" y2="15.3"/>
	<line class="st31" x1="267.8" y1="122.5" x2="267.8" y2="15.3"/>
	<line class="st31" x1="301.3" y1="122.5" x2="301.3" y2="15.3"/>
	<line class="st31" x1="334.9" y1="122.5" x2="334.9" y2="15.3"/>
	<line class="st31" x1="368.4" y1="122.5" x2="368.4" y2="15.3"/>
	<line class="st31" x1="402" y1="122.5" x2="402" y2="15.3"/>
	<polyline class="st32" points="237.6,58.3 238.5,50.5 239.5,45.2 240.5,42.6 241.4,36.5 242.4,33.1 243.4,31.2 244.4,28.2 
		245.3,26.2 246.3,26.2 247.3,26.8 248.3,27.7 249.2,29.5 250.2,31.9 251.2,34.8 252.2,38.3 253.1,42.3 254.1,46.3 255.1,50.2 
		256,54.5 257,59.6 258,65.1 259,70.2 259.9,75.1 260.9,80.3 261.9,86.2 262.9,92.5 263.8,98.3 264.8,103.4 265.8,108.3 266.7,44.4 
		267.7,114 268.7,109.7 269.7,105.2 270.6,100.8 271.6,93.2 272.6,92.4 273.6,88.2 274.5,84.1 275.5,79.8 276.5,75.6 277.4,71.2 
		278.4,66.8 279.4,62.3 280.4,57.7 281.3,53.2 282.3,48.8 283.3,44.5 284.3,40.3 285.2,36.4 286.2,32.8 287.2,29.6 288.2,26.8 
		289.1,24.4 290.1,22.6 291.1,21.2 292,20.4 293,20.2 294,20.5 295,21.3 295.9,22.7 296.9,24.6 297.9,27 298.9,29.7 299.8,32.9 
		300.8,36.4 301.8,40.1 302.7,44 303.7,48 304.7,52.1 305.7,56 306.6,59.9 307.6,63.6 308.6,66.9 309.6,70 310.5,72.7 311.5,75.1 
		312.5,77.1 313.4,78.8 314.4,80.3 315.4,81.7 316.4,83 317.3,84.3 318.3,85.9 319.3,87.6 320.3,89.6 321.2,91.9 322.2,94.5 
		323.2,97.6 324.1,101 325.1,104.7 326.1,108.9 327.1,113.3 328,117.6 329,112.7 330,107.4 331,101.9 331.9,96.3 332.9,90.6 
		333.9,84.8 334.9,79 335.8,73.3 336.8,67.8 337.8,62.3 338.7,57.1 339.7,52.1 340.7,47.4 341.7,43 342.6,39 343.6,35.3 344.6,32.1 
		345.6,29.2 346.5,26.8 347.5,24.8 348.5,23.2 349.4,22.1 350.4,21.3 351.4,21 352.4,21 353.3,21.3 354.3,21.9 355.3,22.9 356.3,24 
		357.2,25.4 358.2,26.9 359.2,28.5 360.1,30.2 361.1,32 362.1,33.8 363.1,35.6 364,37.4 365,39.2 366,41 367,42.8 367.9,44.6 
		368.9,46.4 369.9,48.3 370.9,50.3 371.8,52.4 372.8,54.6 373.8,57 374.7,59.6 375.7,62.4 376.7,65.4 377.7,68.7 378.6,72.3 
		379.6,76.1 380.6,80.1 381.6,84.3 382.5,88.7 383.5,93.2 384.5,97.7 385.4,101.9 386.4,105.2 387.4,106.6 388.4,105.3 389.3,102 
		390.3,97.5 391.3,92.5 392.3,87.4 393.2,82.2 394.2,77.2 395.2,72.2 396.1,67.5 397.1,63.1 398.1,59 399.1,55.2 400,51.8 401,48.9 
		402,46.4 	"/>
	<polyline class="st33" points="237.6,63.8 238.5,56 239.5,50.2 240.5,47.5 241.4,40.8 242.4,36.3 243.4,33.8 244.4,29.4 
		245.3,25.2 246.3,23.5 247.3,22.5 248.3,21 249.2,20.2 250.2,20.7 251.2,21.8 252.2,23.1 253.1,24.6 254.1,26.7 255.1,29.1 
		256,31.8 257,34.8 258,38.3 259,41.9 259.9,45.4 260.9,49 261.9,53.1 262.9,57.7 263.8,62.3 264.8,66.5 265.8,70.5 266.7,73.3 
		267.7,80.8 268.7,85 269.7,89.1 270.6,93.1 271.6,99.2 272.6,101.2 273.6,105.3 274.5,109.5 275.5,113.9 276.5,117.5 277.4,112.8 
		278.4,108 279.4,103 280.4,97.8 281.3,92.5 282.3,87.1 283.3,81.7 284.3,76.3 285.2,70.9 286.2,65.7 287.2,60.6 288.2,55.7 
		289.1,51.1 290.1,46.8 291.1,42.8 292,39.2 293,36.1 294,33.4 295,31.1 295.9,29.3 296.9,28 297.9,27.2 298.9,26.7 299.8,26.7 
		300.8,27 301.8,27.6 302.7,28.5 303.7,29.6 304.7,30.8 305.7,32.1 306.6,33.4 307.6,34.6 308.6,35.6 309.6,36.5 310.5,37.1 
		311.5,37.5 312.5,37.6 313.4,37.4 314.4,37.1 315.4,36.4 316.4,35.7 317.3,34.9 318.3,34.1 319.3,33.4 320.3,32.9 321.2,32.5 
		322.2,32.4 323.2,32.5 324.1,33 325.1,33.9 326.1,35.2 327.1,36.9 328,38.9 329,41.4 330,44.3 331,47.6 331.9,51.3 332.9,55.3 
		333.9,59.6 334.9,64.2 335.8,68.9 336.8,73.8 337.8,78.8 338.7,83.7 339.7,88.4 340.7,92.7 341.7,96.2 342.6,98.5 343.6,99.1 
		344.6,98.1 345.6,95.7 346.5,92.4 347.5,88.7 348.5,84.8 349.4,80.9 350.4,77.2 351.4,73.6 352.4,70.3 353.3,67.3 354.3,64.6 
		355.3,62.1 356.3,60 357.2,58.2 358.2,56.6 359.2,55.3 360.1,54.2 361.1,53.3 362.1,52.6 363.1,51.9 364,51.3 365,50.8 366,50.2 
		367,49.5 367.9,48.7 368.9,47.8 369.9,46.8 370.9,45.6 371.8,44.3 372.8,42.9 373.8,41.4 374.7,39.8 375.7,38.1 376.7,36.5 
		377.7,34.9 378.6,33.3 379.6,31.9 380.6,30.7 381.6,29.7 382.5,28.8 383.5,28.3 384.5,27.9 385.4,27.9 386.4,28.2 387.4,28.8 
		388.4,29.7 389.3,31 390.3,32.5 391.3,34.3 392.3,36.4 393.2,38.8 394.2,41.3 395.2,44.1 396.1,47.1 397.1,50.2 398.1,53.3 
		399.1,56.5 400,59.8 401,62.9 402,66 	"/>
	<polyline class="st34" points="234.9,85.3 235.2,85.4 235.5,85.4 235.9,85.2 236.2,84.6 236.6,83.7 236.9,82.3 237.2,80.4 
		237.6,78 237.9,75.3 238.2,72.2 238.6,68.9 238.9,65.6 239.2,62.2 239.6,58.8 239.9,55.6 240.2,52.5 240.6,49.7 240.9,47 
		241.3,44.6 241.6,42.4 241.9,40.4 242.3,38.7 242.6,37.2 242.9,35.8 243.3,34.7 243.6,33.6 243.9,32.7 244.3,31.9 244.6,31.2 
		244.9,30.5 245.3,29.9 245.6,29.3 245.9,28.7 246.3,28 246.6,27.4 247,26.7 247.3,26 247.6,25.3 248,24.5 248.3,23.8 248.6,23.1 
		249,22.4 249.3,21.8 249.6,21.2 250,20.8 250.3,20.5 250.6,20.2 251,20.2 251.3,20.2 251.7,20.4 252,20.7 252.3,21.2 252.7,21.7 
		253,22.3 253.3,22.9 253.7,23.6 254,24.3 254.3,25 254.7,25.6 255,26.2 255.3,26.8 255.7,27.3 256,27.7 256.3,28.1 256.7,28.5 
		257,29 257.4,29.4 257.7,30 258,30.6 258.4,31.4 258.7,32.3 259,33.3 259.4,34.5 259.7,35.9 260,37.5 260.4,39.2 260.7,41 261,43 
		261.4,45 261.7,47.1 262.1,49.1 262.4,51.2 262.7,53.2 263.1,55.1 263.4,57 263.7,58.7 264.1,60.2 264.4,61.7 264.7,63 265.1,64.2 
		265.4,65.3 265.7,66.4 266.1,67.3 266.4,68.3 266.8,69.3 267.1,70.2 267.4,71.3 267.8,72.3 268.1,73.5 268.4,74.8 268.8,76.1 
		269.1,77.4 269.4,78.8 269.8,80.3 270.1,81.7 270.4,83.1 270.8,84.5 271.1,85.7 271.5,86.9 271.8,87.9 272.1,88.8 272.5,89.6 
		272.8,90.4 273.1,91.1 273.5,91.8 273.8,92.5 274.1,93.4 274.5,94.3 274.8,95.5 275.1,96.8 275.5,98.4 275.8,100.1 276.1,102 
		276.5,104.1 276.8,106.3 277.2,108.6 277.5,111 277.8,113.3 278.2,115.5 278.5,116.3 278.8,114.7 279.2,112.7 279.5,110.8 
		279.8,109 280.2,107.3 280.5,105.8 280.8,104.4 281.5,101.7 281.9,100.3 282.2,98.8 282.5,97.1 282.9,95.3 283.2,93.2 283.5,90.9 
		283.9,88.4 284.2,85.7 284.5,83 284.9,80.2 285.2,77.5 285.5,74.8 285.9,72.2 286.2,69.7 286.6,67.4 286.9,65.3 287.2,63.3 
		287.6,61.4 287.9,59.6 288.2,57.9 288.6,56.1 288.9,54.4 289.2,52.6 289.6,50.7 289.9,48.8 290.2,46.8 290.6,44.8 290.9,42.8 
		291.2,40.9 291.6,39.2 291.9,37.7 292.3,36.5 292.6,35.6 292.9,35.1 293.3,35.2 293.6,35.6 293.9,36.6 294.3,38.1 294.6,40 
		294.9,42.4 295.3,45 295.6,47.9 295.9,51 296.3,54 296.6,56.9 297,59.6 297.3,61.7 297.6,63.3 298,64.2 298.3,64.4 298.6,63.9 
		299,62.7 299.3,61 299.6,58.9 300,56.5 300.3,53.9 300.6,51.3 301,48.7 301.3,46.1 301.7,43.7 302,41.4 302.3,39.4 302.7,37.6 
		303,36 303.3,34.6 303.7,33.5 304,32.7 304.3,32.1 304.7,31.8 305,31.7 305.3,31.8 305.7,32.1 306,32.5 306.3,33.1 306.7,33.7 
		307,34.2 307.4,34.8 307.7,35.2 308,35.5 308.4,35.6 308.7,35.5 309,35.2 309.4,34.7 309.7,34 310,33.1 310.4,32.2 310.7,31.2 
		311,30.2 311.4,29.2 311.7,28.4 312.1,27.7 312.4,27.1 312.7,26.8 313.1,26.7 313.4,26.9 313.7,27.2 314.1,27.8 314.4,28.6 
		314.7,29.4 315.1,30.4 315.4,31.4 315.7,32.4 316.1,33.3 316.4,34.1 316.8,34.8 317.1,35.4 317.4,35.8 317.8,36.1 318.1,36.3 
		318.4,36.5 318.8,36.7 319.1,36.9 319.4,37.2 319.8,37.7 320.1,38.2 320.4,38.9 320.8,39.7 321.1,40.7 321.4,41.7 321.8,42.7 
		322.1,43.6 322.5,44.5 322.8,45.3 323.1,45.9 323.5,46.3 323.8,46.5 324.1,46.5 324.5,46.5 324.8,46.3 325.1,46.1 325.5,45.9 
		325.8,45.6 326.1,45.4 326.5,45.3 326.8,45.1 327.2,45 327.5,44.8 327.8,44.6 328.2,44.2 328.5,43.8 328.8,43.2 329.2,42.5 
		329.5,41.7 329.8,40.9 330.2,40.1 330.5,39.3 330.8,38.7 331.2,38.2 331.5,37.9 331.9,37.9 332.2,38.1 332.5,38.6 332.9,39.3 
		333.2,40.2 333.5,41.3 333.9,42.4 334.2,43.6 334.5,44.8 334.9,45.9 335.2,47 335.5,48 335.9,49 336.2,50 336.5,51.1 336.9,52.1 
		337.2,53.4 337.6,54.7 337.9,56.3 338.2,58 338.6,59.9 338.9,61.9 339.2,64 339.6,66.1 339.9,68.2 340.2,70.2 340.6,72.1 
		340.9,73.7 341.2,75.2 341.6,76.5 341.9,77.7 342.3,78.9 342.6,80 342.9,81.2 343.3,82.6 343.6,84 343.9,85.6 344.3,87.2 
		344.6,88.8 344.9,90.3 345.3,91.6 345.6,92.4 345.9,92.7 346.3,92.4 346.6,91.6 347,90.4 347.3,89 347.6,87.5 348,86 348.3,84.7 
		348.6,83.7 349,83.1 349.3,82.8 349.6,82.8 350,83.1 350.3,83.7 350.6,84.4 351,85.1 351.3,85.7 351.6,86 352,86 352.3,85.6 
		352.7,84.8 353,83.7 353.3,82.3 353.7,80.8 354,79.2 354.3,77.7 354.7,76.3 355,75.1 355.3,74.2 355.7,73.4 356,72.8 356.3,72.4 
		356.7,72.1 357,71.8 357.4,71.5 357.7,71.1 358,70.7 358.4,70.1 358.7,69.5 359,68.8 359.4,68.1 359.7,67.4 360,66.7 360.4,66.2 
		360.7,65.7 361,65.4 361.4,65.3 361.7,65.3 362.1,65.3 362.4,65.4 362.7,65.5 363.1,65.6 363.4,65.6 363.7,65.4 364.1,65.2 
		364.4,64.7 364.7,64.2 365.1,63.6 365.4,63 365.7,62.3 366.1,61.7 366.4,61.2 366.8,60.8 367.1,60.6 367.4,60.5 367.8,60.4 
		368.1,60.5 368.4,60.6 368.8,60.7 369.1,60.7 369.4,60.6 369.8,60.4 370.1,60 370.4,59.4 370.8,58.7 371.1,57.7 371.4,56.7 
		371.8,55.6 372.1,54.5 372.5,53.4 372.8,52.5 373.1,51.7 373.5,51.1 373.8,50.7 374.1,50.4 374.5,50.4 374.8,50.4 375.1,50.6 
		375.5,50.8 375.8,51 376.1,51 376.5,51 376.8,50.8 377.2,50.4 377.5,49.9 377.8,49.2 378.2,48.3 378.5,47.5 378.8,46.6 379.2,45.7 
		379.5,44.9 379.8,44.1 380.2,43.5 380.5,42.9 380.8,42.3 381.2,41.8 381.5,41.2 381.8,40.4 382.2,39.6 382.5,38.6 382.9,37.4 
		383.2,36 383.5,34.6 383.9,33 384.2,31.5 384.5,30.1 384.9,28.7 385.2,27.6 385.5,26.8 385.9,26.2 386.2,26 386.5,26.1 386.9,26.4 
		387.2,27 387.6,27.8 387.9,28.7 388.2,29.7 388.6,30.7 388.9,31.6 389.2,32.5 389.6,33.2 389.9,33.9 390.2,34.6 390.6,35.2 
		390.9,35.8 391.2,36.5 391.6,37.3 391.9,38.3 392.3,39.4 392.6,40.7 392.9,42.1 393.3,43.7 393.6,45.2 393.9,46.8 394.3,48.3 
		394.6,49.7 394.9,50.9 395.3,52 395.6,52.9 395.9,53.7 396.3,54.4 396.6,55.1 397,55.8 397.3,56.5 397.6,57.3 398,58.1 398.3,59.1 
		398.6,60 399,60.8 399.3,61.6 399.6,62.2 400,62.5 400.3,62.5 400.6,62.3 401,61.8 401.3,61.2 401.6,60.4 402,59.5 	"/>
	<rect x="226.5" y="15.3" class="st35" width="183.8" height="107.2"/>
</g>
<line class="st10" x1="224.8" y1="117.9" x2="226.5" y2="117.9"/>
<line class="st10" x1="224.8" y1="93.5" x2="226.5" y2="93.5"/>
<line class="st10" x1="224.8" y1="69" x2="226.5" y2="69"/>
<line class="st10" x1="224.8" y1="44.6" x2="226.5" y2="44.6"/>
<line class="st10" x1="224.8" y1="20.2" x2="226.5" y2="20.2"/>
<line class="st10" x1="234.2" y1="124.3" x2="234.2" y2="122.5"/>
<line class="st10" x1="267.8" y1="124.3" x2="267.8" y2="122.5"/>
<line class="st10" x1="301.3" y1="124.3" x2="301.3" y2="122.5"/>
<line class="st10" x1="334.9" y1="124.3" x2="334.9" y2="122.5"/>
<line class="st10" x1="368.4" y1="124.3" x2="368.4" y2="122.5"/>
<line class="st10" x1="402" y1="124.3" x2="402" y2="122.5"/>
<text transform="matrix(1 0 0 1 230.7115 256.9528)" class="st8 st9">0</text>
<text transform="matrix(1 0 0 1 291.7701 256.9529)" class="st8 st9">200</text>
<text transform="matrix(1 0 0 1 358.9286 256.2342)" class="st8 st9">400</text>
<text transform="matrix(1 0 0 1 29.3145 258.5347)" class="st8 st9">0</text>
<text transform="matrix(1 0 0 1 90.726 258.5349)" class="st8 st9">200</text>
<text transform="matrix(1 0 0 1 157.8846 257.8162)" class="st8 st9">400</text>
<line class="st10" x1="22.9" y1="44.9" x2="24.6" y2="44.9"/>
<g>
	<line class="st36" x1="45.8" y1="289.9" x2="68.4" y2="289.9"/>
	<line class="st37" x1="161.5" y1="289.9" x2="184.1" y2="289.9"/>
	<line class="st38" x1="277.6" y1="289.9" x2="299.9" y2="289.9"/>
	<text transform="matrix(1 0 0 1 193.6286 293.6935)" class="st7 st8 st14">с вырезом</text>
	<text transform="matrix(1 0 0 1 309.6056 293.8623)" class="st7 st8 st14">эксперимент</text>
	<text transform="matrix(1 0 0 1 77.9634 293.7971)" class="st7 st8 st14">круглый</text>
	<path class="st39" d="M393,300.4H37.1c-2.7,0-4.8-2.2-4.8-4.8v-12.1c0-2.7,2.2-4.8,4.8-4.8H393c2.7,0,4.8,2.2,4.8,4.8v12.1
		C397.9,298.2,395.7,300.4,393,300.4z"/>
</g>
<text transform="matrix(1 0 0 1 60.3823 32.6145)" class="st40 st41">A</text>
<text transform="matrix(1 0 0 1 267.1093 32.3276)" class="st40 st41">B</text>
<text transform="matrix(1 0 0 1 57.553 154.1706)" class="st40 st41">C</text>
<text transform="matrix(1 0 0 1 264.3789 152.8055)" class="st40 st41">D</text>
</svg>
